<svg width="1280" height="720" xmlns="http://www.w3.org/2000/svg" xmlns:xlink="http://www.w3.org/1999/xlink" overflow="hidden"><defs><clipPath id="clip0"><rect x="0" y="0" width="1280" height="720"/></clipPath><clipPath id="clip1"><rect x="55" y="1" width="146" height="146"/></clipPath><clipPath id="clip2"><rect x="55" y="1" width="146" height="146"/></clipPath><clipPath id="clip3"><rect x="55" y="1" width="146" height="146"/></clipPath></defs><g clip-path="url(#clip0)"><rect x="0" y="0" width="1280" height="720" fill="#FFFFFF"/><g clip-path="url(#clip1)"><g clip-path="url(#clip2)"><g clip-path="url(#clip3)"><path d="M91.5 61.8409C99.0595 61.8409 105.188 55.7129 105.188 48.1534 105.188 40.594 99.0595 34.4659 91.5 34.4659 83.9405 34.4659 77.8125 40.594 77.8125 48.1534 77.8125 55.7129 83.9405 61.8409 91.5 61.8409ZM91.5 37.5C97.3795 37.5 102.146 42.2663 102.146 48.1458 102.146 54.0254 97.3795 58.7917 91.5 58.7917 85.6205 58.7917 80.8542 54.0254 80.8542 48.1458 80.8618 42.2695 85.6237 37.5076 91.5 37.5Z"/><path d="M164.5 61.8409C172.059 61.8409 178.188 55.7129 178.188 48.1534 178.188 40.594 172.059 34.4659 164.5 34.4659 156.941 34.4659 150.812 40.594 150.812 48.1534 150.812 55.7129 156.941 61.8409 164.5 61.8409ZM164.5 37.5C170.38 37.5 175.146 42.2663 175.146 48.1458 175.146 54.0254 170.38 58.7917 164.5 58.7917 158.62 58.7917 153.854 54.0254 153.854 48.1458 153.862 42.2695 158.624 37.5076 164.5 37.5Z"/><path d="M188.681 73.2229C184.805 70.2001 180.318 68.0563 175.531 66.9403 171.947 65.8701 168.239 65.2729 164.5 65.164 160.764 65.1678 157.052 65.7648 153.503 66.9327 150.979 67.5859 148.536 68.5168 146.218 69.7082 146.181 70.9591 146.014 72.2027 145.719 73.419 148.424 71.8462 151.329 70.6461 154.355 69.8512 157.629 68.7752 161.053 68.2199 164.5 68.2056 167.977 68.3177 171.424 68.88 174.757 69.8785 179.137 70.8858 183.244 72.8402 186.789 75.6045L186.92 75.7018C188.171 76.6037 188.889 78.0708 188.833 79.6119L188.833 91.0181 191.875 91.0181 191.875 79.6119C191.931 77.0855 190.735 74.6946 188.681 73.2229Z"/><path d="M110.217 73.1833C109.94 71.9814 109.787 70.7542 109.761 69.5211 107.44 68.4254 105.017 67.5594 102.528 66.9357 98.9446 65.8673 95.2373 65.2716 91.5 65.164 87.7638 65.1678 84.0519 65.7648 80.5029 66.9327 75.7428 68.2306 71.2565 70.3786 67.261 73.273 65.2934 74.7875 64.1395 77.129 64.1372 79.6119L64.1372 91.0181 67.1788 91.0181 67.1788 79.6119C67.1817 78.0774 67.8935 76.6301 69.1073 75.6912 72.808 73.0248 76.9587 71.0465 81.3606 69.8512 84.6336 68.7758 88.055 68.2205 91.5 68.2056 94.9768 68.3177 98.4244 68.8801 101.757 69.8785 104.71 70.6025 107.555 71.7137 110.217 73.1833Z"/><path d="M152.181 94.2271C148.305 91.2038 143.818 89.0601 139.031 87.9445 135.447 86.8745 131.739 86.2769 128 86.1667 124.265 86.1703 120.554 86.7674 117.006 87.9354 112.245 89.2324 107.759 91.3804 103.764 94.2758 101.79 95.7867 100.63 98.1288 100.625 100.615L100.625 112.021 103.667 112.021 103.667 100.615C103.669 99.0796 104.382 97.6322 105.597 96.6939 109.296 94.0269 113.447 92.0486 117.848 90.8539 121.125 89.7773 124.551 89.222 128 89.2083 131.477 89.3198 134.925 89.8821 138.258 90.8812 142.639 91.8871 146.745 93.8411 150.289 96.6057L150.42 96.703C151.671 97.6055 152.389 99.0731 152.333 100.615L152.333 112.021 155.375 112.021 155.375 100.615C155.43 98.0888 154.235 95.6985 152.181 94.2271Z"/><path d="M128 82.8436C135.559 82.8436 141.688 76.7156 141.688 69.1561 141.688 61.5967 135.559 55.4686 128 55.4686 120.441 55.4686 114.312 61.5967 114.312 69.1561 114.312 76.7156 120.441 82.8436 128 82.8436ZM128 58.5103C133.88 58.5103 138.646 63.2766 138.646 69.1561 138.646 75.0357 133.88 79.802 128 79.802 122.12 79.802 117.354 75.0357 117.354 69.1561 117.358 63.2771 122.121 58.5111 128 58.5027Z"/></g></g></g><path d="M315.5 0.500053 315.5 720.5" stroke="#000000" stroke-width="3" stroke-linejoin="round" stroke-miterlimit="10" stroke-dasharray="12 9" fill="none" fill-rule="evenodd"/><rect x="26.5001" y="225.5" width="207" height="134" stroke="#000000" stroke-width="3" stroke-miterlimit="8" fill="#FFFFFF"/><text font-family="Calibri,Calibri_MSFontService,sans-serif" font-weight="400" font-size="24" transform="translate(35.9199 256)">1. Send a request</text><text font-family="Calibri,Calibri_MSFontService,sans-serif" font-weight="400" font-size="24" transform="translate(35.9199 285)">with respective</text><text font-family="Calibri,Calibri_MSFontService,sans-serif" font-weight="400" font-size="24" transform="translate(35.9199 314)">arguments or</text><text font-family="Calibri,Calibri_MSFontService,sans-serif" font-weight="400" font-size="24" transform="translate(35.9199 343)">dataset</text><rect x="397.5" y="225.5" width="229" height="134" stroke="#000000" stroke-width="3" stroke-miterlimit="8" fill="#FFFFFF"/><text font-family="Calibri,Calibri_MSFontService,sans-serif" font-weight="400" font-size="24" transform="translate(406.409 256)">2. Perform consistent</text><text font-family="Calibri,Calibri_MSFontService,sans-serif" font-weight="400" font-size="24" transform="translate(406.409 285)">hash sharding based</text><text font-family="Calibri,Calibri_MSFontService,sans-serif" font-weight="400" font-size="24" transform="translate(406.409 314)">on given arguments</text><text font-family="Calibri,Calibri_MSFontService,sans-serif" font-weight="400" font-size="24" transform="translate(406.409 343)">or dataset</text><path d="M895 348 1034.64 348 1034.64 350 895 350ZM1027.15 343.47 1036.63 349 1027.15 354.531C1026.67 354.809 1026.06 354.648 1025.78 354.171 1025.5 353.694 1025.66 353.081 1026.14 352.803L1034.14 348.136 1034.14 349.864 1026.14 345.197C1025.66 344.919 1025.5 344.307 1025.78 343.83 1026.06 343.353 1026.67 343.191 1027.15 343.47Z" fill="#385723"/><path d="M895 269 1034.64 269 1034.64 271 895 271ZM1027.15 264.47 1036.63 270 1027.15 275.531C1026.67 275.809 1026.06 275.648 1025.78 275.171 1025.5 274.694 1025.66 274.081 1026.14 273.803L1034.14 269.136 1034.14 270.864 1026.14 266.197C1025.66 265.919 1025.5 265.307 1025.78 264.83 1026.06 264.353 1026.67 264.191 1027.15 264.47Z" fill="#385723"/><path d="M895 309 1034.64 309 1034.64 311 895 311ZM1027.15 304.47 1036.63 310 1027.15 315.531C1026.67 315.809 1026.06 315.648 1025.78 315.171 1025.5 314.694 1025.66 314.081 1026.14 313.803L1034.14 309.136 1034.14 310.864 1026.14 306.197C1025.66 305.919 1025.5 305.307 1025.78 304.83 1026.06 304.353 1026.67 304.191 1027.15 304.47Z" fill="#385723"/><path d="M896 228 1034.11 228 1034.11 230 896 230ZM1026.61 223.47 1036.09 229 1026.61 234.531C1026.14 234.809 1025.52 234.648 1025.24 234.171 1024.97 233.694 1025.13 233.081 1025.6 232.803L1033.6 228.136 1033.6 229.864 1025.6 225.197C1025.13 224.919 1024.97 224.307 1025.24 223.83 1025.52 223.353 1026.14 223.191 1026.61 223.47Z" fill="#385723"/><path d="M965.5 0.500053 965.5 720.5" stroke="#000000" stroke-width="3" stroke-linejoin="round" stroke-miterlimit="10" stroke-dasharray="12 9" fill="none" fill-rule="evenodd"/><rect x="676.5" y="196.5" width="231" height="192" stroke="#000000" stroke-width="3" stroke-miterlimit="8" fill="#FFFFFF"/><text font-family="Calibri,Calibri_MSFontService,sans-serif" font-weight="400" font-size="24" transform="translate(685.974 242)">3. Construct</text><text font-family="Calibri,Calibri_MSFontService,sans-serif" font-weight="400" font-size="24" transform="translate(685.974 271)">pipelines to send</text><text font-family="Calibri,Calibri_MSFontService,sans-serif" font-weight="400" font-size="24" transform="translate(685.974 300)">multiple requests to</text><text font-family="Calibri,Calibri_MSFontService,sans-serif" font-weight="400" font-size="24" transform="translate(685.974 329)">corresponding shards</text><text font-family="Calibri,Calibri_MSFontService,sans-serif" font-weight="400" font-size="24" transform="translate(685.974 358)">and database nodes</text><rect x="1035.5" y="196.5" width="230" height="192" stroke="#000000" stroke-width="3" stroke-miterlimit="8" fill="#FFFFFF"/><text font-family="Calibri,Calibri_MSFontService,sans-serif" font-weight="400" font-size="24" transform="translate(1044.46 256)">4. Process requests</text><text font-family="Calibri,Calibri_MSFontService,sans-serif" font-weight="400" font-size="24" transform="translate(1044.46 285)">individually in</text><text font-family="Calibri,Calibri_MSFontService,sans-serif" font-weight="400" font-size="24" transform="translate(1044.46 314)">respective shards</text><text font-family="Calibri,Calibri_MSFontService,sans-serif" font-weight="400" font-size="24" transform="translate(1044.46 343)">and database nodes</text><path d="M1015.5 31.7501C1015.5 37.411 1033.86 42.0001 1056.5 42.0001 1079.14 42.0001 1097.5 37.411 1097.5 31.7501L1097.5 93.2501C1097.5 98.911 1079.14 103.5 1056.5 103.5 1033.86 103.5 1015.5 98.911 1015.5 93.2501Z" fill="#A5A5A5" fill-rule="evenodd"/><path d="M1015.5 31.7501C1015.5 26.0891 1033.86 21.5001 1056.5 21.5001 1079.14 21.5001 1097.5 26.0891 1097.5 31.7501 1097.5 37.411 1079.14 42.0001 1056.5 42.0001 1033.86 42.0001 1015.5 37.411 1015.5 31.7501Z" fill="#C9C9C9" fill-rule="evenodd"/><path d="M1097.5 31.7501C1097.5 37.411 1079.14 42.0001 1056.5 42.0001 1033.86 42.0001 1015.5 37.411 1015.5 31.7501 1015.5 26.0891 1033.86 21.5001 1056.5 21.5001 1079.14 21.5001 1097.5 26.0891 1097.5 31.7501L1097.5 93.2501C1097.5 98.911 1079.14 103.5 1056.5 103.5 1033.86 103.5 1015.5 98.911 1015.5 93.2501L1015.5 31.7501" stroke="#000000" stroke-width="1.33333" stroke-miterlimit="8" fill="none" fill-rule="evenodd"/><text font-family="Calibri,Calibri_MSFontService,sans-serif" font-weight="400" font-size="24" transform="translate(1044.25 75)">D</text><text font-family="Calibri,Calibri_MSFontService,sans-serif" font-weight="400" font-size="16" transform="translate(1059.09 80)">1</text><path d="M1154.5 31.7501C1154.5 37.411 1172.86 42.0001 1195.5 42.0001 1218.14 42.0001 1236.5 37.411 1236.5 31.7501L1236.5 93.2501C1236.5 98.911 1218.14 103.5 1195.5 103.5 1172.86 103.5 1154.5 98.911 1154.5 93.2501Z" fill="#A5A5A5" fill-rule="evenodd"/><path d="M1154.5 31.7501C1154.5 26.0891 1172.86 21.5001 1195.5 21.5001 1218.14 21.5001 1236.5 26.0891 1236.5 31.7501 1236.5 37.411 1218.14 42.0001 1195.5 42.0001 1172.86 42.0001 1154.5 37.411 1154.5 31.7501Z" fill="#C9C9C9" fill-rule="evenodd"/><path d="M1236.5 31.7501C1236.5 37.411 1218.14 42.0001 1195.5 42.0001 1172.86 42.0001 1154.5 37.411 1154.5 31.7501 1154.5 26.0891 1172.86 21.5001 1195.5 21.5001 1218.14 21.5001 1236.5 26.0891 1236.5 31.7501L1236.5 93.2501C1236.5 98.911 1218.14 103.5 1195.5 103.5 1172.86 103.5 1154.5 98.911 1154.5 93.2501L1154.5 31.7501" stroke="#000000" stroke-width="1.33333" stroke-miterlimit="8" fill="none" fill-rule="evenodd"/><text font-family="Calibri,Calibri_MSFontService,sans-serif" font-weight="400" font-size="24" transform="translate(1183.68 75)">D</text><text font-family="Calibri,Calibri_MSFontService,sans-serif" font-weight="400" font-size="16" transform="translate(1198.51 80)">n</text><text font-family="Calibri,Calibri_MSFontService,sans-serif" font-weight="400" font-size="24" transform="translate(1112.54 91)">…</text><path d="M506.5 37.3335C506.5 31.3503 511.35 26.5001 517.333 26.5001L763.667 26.5001C769.65 26.5001 774.5 31.3503 774.5 37.3335L774.5 80.6666C774.5 86.6498 769.65 91.5001 763.667 91.5001L517.333 91.5001C511.35 91.5001 506.5 86.6498 506.5 80.6666Z" stroke="#385723" stroke-width="3" stroke-miterlimit="8" fill="#FFFFFF" fill-rule="evenodd"/><text font-family="Calibri,Calibri_MSFontService,sans-serif" font-weight="400" font-size="37" transform="translate(550.797 72)">Middleware</text><path d="M233 291 394.946 291 394.946 293 233 293ZM387.45 286.47 396.931 292 387.45 297.531C386.973 297.809 386.361 297.648 386.083 297.171 385.804 296.694 385.965 296.081 386.443 295.803L394.443 291.136 394.443 292.864 386.443 288.197C385.965 287.919 385.804 287.307 386.083 286.83 386.361 286.353 386.973 286.191 387.45 286.47Z"/><rect x="1047.5" y="489.5" width="206" height="134" stroke="#000000" stroke-width="3" stroke-miterlimit="8" fill="#FFFFFF"/><text font-family="Calibri,Calibri_MSFontService,sans-serif" font-weight="400" font-size="24" transform="translate(1078.97 535)">5. Send results</text><text font-family="Calibri,Calibri_MSFontService,sans-serif" font-weight="400" font-size="24" transform="translate(1073.69 564)">from respective</text><text font-family="Calibri,Calibri_MSFontService,sans-serif" font-weight="400" font-size="24" transform="translate(1073.4 593)">database nodes</text><path d="M1151 387.999 1151.08 486.855 1149.08 486.857 1149 388.001ZM1155.6 479.356 1150.08 488.841 1144.54 479.365C1144.26 478.888 1144.43 478.275 1144.9 477.997 1145.38 477.718 1145.99 477.879 1146.27 478.355L1150.94 486.352 1149.22 486.353 1153.88 478.349C1154.15 477.872 1154.77 477.71 1155.24 477.988 1155.72 478.266 1155.88 478.878 1155.6 479.356Z"/><path d="M0.0039281-0.999992 48.7251-0.808609 48.7172 1.19138-0.0039281 0.999992ZM41.2467-5.36847 50.7056 0.199178 41.2032 5.69234C40.7251 5.96874 40.1134 5.8052 39.837 5.32706 39.5606 4.84892 39.7241 4.23724 40.2023 3.96084L48.2205-0.674369 48.2138 1.05318 40.2321-3.64488C39.7562-3.92503 39.5975-4.53798 39.8776-5.01393 40.1578-5.48989 40.7707-5.64862 41.2467-5.36847Z" transform="matrix(1 0 0 -1 626 292.199)"/><rect x="688.5" y="491.5" width="206" height="135" stroke="#000000" stroke-width="3" stroke-miterlimit="8" fill="#FFFFFF"/><text font-family="Calibri,Calibri_MSFontService,sans-serif" font-weight="400" font-size="24" transform="translate(733.156 537)">6. Merge all</text><text font-family="Calibri,Calibri_MSFontService,sans-serif" font-weight="400" font-size="24" transform="translate(711.823 566)">incoming partial</text><text font-family="Calibri,Calibri_MSFontService,sans-serif" font-weight="400" font-size="24" transform="translate(758.383 595)">results</text><path d="M6.87198e-07-1 150.796-0.999896 150.796 1.0001-6.87198e-07 1ZM143.299-5.53035 152.78 0.000104722 143.299 5.53054C142.822 5.80882 142.21 5.64769 141.932 5.17064 141.653 4.69358 141.814 4.08127 142.291 3.80299L150.291-0.863676 150.291 0.863882 142.291-3.80279C141.814-4.08107 141.653-4.69339 141.932-5.17044 142.21-5.64749 142.822-5.80863 143.299-5.53035Z" fill="#385723" transform="matrix(-1 0 0 1 1046.78 507)"/><path d="M6.87198e-07-1 150.796-0.999896 150.796 1.0001-6.87198e-07 1ZM143.299-5.53035 152.78 0.000104722 143.299 5.53054C142.822 5.80882 142.21 5.64769 141.932 5.17064 141.653 4.69358 141.814 4.08127 142.291 3.80299L150.291-0.863676 150.291 0.863882 142.291-3.80279C141.814-4.08107 141.653-4.69339 141.932-5.17044 142.21-5.64749 142.822-5.80863 143.299-5.53035Z" fill="#385723" transform="matrix(-1 0 0 1 1046.78 541)"/><path d="M6.87198e-07-1 150.796-0.999896 150.796 1.0001-6.87198e-07 1ZM143.299-5.53035 152.78 0.000104722 143.299 5.53054C142.822 5.80882 142.21 5.64769 141.932 5.17064 141.653 4.69358 141.814 4.08127 142.291 3.80299L150.291-0.863676 150.291 0.863882 142.291-3.80279C141.814-4.08107 141.653-4.69339 141.932-5.17044 142.21-5.64749 142.822-5.80863 143.299-5.53035Z" fill="#385723" transform="matrix(-1 0 0 1 1046.78 578)"/><path d="M6.87198e-07-1 150.796-0.999896 150.796 1.0001-6.87198e-07 1ZM143.299-5.53035 152.78 0.000104722 143.299 5.53054C142.822 5.80882 142.21 5.64769 141.932 5.17064 141.653 4.69358 141.814 4.08127 142.291 3.80299L150.291-0.863676 150.291 0.863882 142.291-3.80279C141.814-4.08107 141.653-4.69339 141.932-5.17044 142.21-5.64749 142.822-5.80863 143.299-5.53035Z" fill="#385723" transform="matrix(-1 0 0 1 1046.78 612)"/><path d="M408.264 559.044 234.981 559.001 234.981 557.001 408.265 557.044ZM242.475 563.533 232.995 558 242.478 552.472C242.955 552.194 243.567 552.355 243.845 552.832 244.123 553.309 243.962 553.922 243.485 554.2L235.484 558.864 235.484 557.137 243.483 561.806C243.96 562.084 244.121 562.696 243.842 563.173 243.564 563.65 242.952 563.811 242.475 563.533Z"/><rect x="26.5001" y="491.5" width="207" height="135" stroke="#000000" stroke-width="3" stroke-miterlimit="8" fill="#FFFFFF"/><text font-family="Calibri,Calibri_MSFontService,sans-serif" font-weight="400" font-size="24" transform="translate(35.7327 537)">8. Receive a</text><text font-family="Calibri,Calibri_MSFontService,sans-serif" font-weight="400" font-size="24" transform="translate(35.7327 566)">response with</text><text font-family="Calibri,Calibri_MSFontService,sans-serif" font-weight="400" font-size="24" transform="translate(35.7327 595)">expected result</text><rect x="408.5" y="491.5" width="207" height="135" stroke="#000000" stroke-width="3" stroke-miterlimit="8" fill="#FFFFFF"/><text font-family="Calibri,Calibri_MSFontService,sans-serif" font-weight="400" font-size="24" transform="translate(418.001 552)">7. Send aggregated</text><text font-family="Calibri,Calibri_MSFontService,sans-serif" font-weight="400" font-size="24" transform="translate(483.481 581)">result</text><path d="M0.000608326-1 71.0233-0.956795 71.0221 1.0432-0.000608326 1ZM63.53-5.4918 73.0074 0.0444122 63.5232 5.56909C63.046 5.84708 62.4338 5.68557 62.1558 5.20835 61.8778 4.73113 62.0393 4.11891 62.5165 3.84092L70.5194-0.82088 70.5183 0.906677 62.5212-3.76486C62.0443-4.04343 61.8835-4.65584 62.1621-5.13272 62.4407-5.60961 63.0531-5.77037 63.53-5.4918Z" transform="matrix(-1 0 0 1 688.003 558)"/><text font-family="Calibri,Calibri_MSFontService,sans-serif" font-weight="400" font-size="37" transform="translate(77.913 150)">Clients</text><text font-family="Calibri,Calibri_MSFontService,sans-serif" font-weight="400" font-size="37" transform="translate(1004.64 144)">Database nodes</text></g></svg>