<svg width="1280" height="720" xmlns="http://www.w3.org/2000/svg" xmlns:xlink="http://www.w3.org/1999/xlink" overflow="hidden"><defs><clipPath id="clip0"><rect x="0" y="0" width="1280" height="720"/></clipPath><clipPath id="clip1"><rect x="808" y="-169" width="378" height="808"/></clipPath><clipPath id="clip2"><rect x="808" y="-168" width="378" height="807"/></clipPath><clipPath id="clip3"><rect x="808" y="-168" width="378" height="807"/></clipPath><clipPath id="clip4"><rect x="635" y="4" width="174" height="404"/></clipPath><clipPath id="clip5"><rect x="635" y="4" width="174" height="404"/></clipPath><clipPath id="clip6"><rect x="808" y="-44" width="378" height="808"/></clipPath><clipPath id="clip7"><rect x="635" y="129" width="174" height="404"/></clipPath><clipPath id="clip8"><rect x="808" y="81" width="378" height="807"/></clipPath><clipPath id="clip9"><rect x="635" y="254" width="174" height="404"/></clipPath></defs><g clip-path="url(#clip0)"><rect x="0" y="0" width="1280" height="720" fill="#FFFFFF"/><rect x="44.5001" y="263.5" width="433" height="194" stroke="#000000" stroke-width="1.33333" stroke-miterlimit="8" fill="#FFFFFF"/><text font-family="Calibri,Calibri_MSFontService,sans-serif" font-weight="700" font-size="48" transform="translate(224.509 319)">Key</text><path d="M224.769 323.6 296.769 323.6 296.769 326.6 224.769 326.6Z" fill-rule="evenodd"/><text font-family="Calibri,Calibri_MSFontService,sans-serif" font-weight="400" font-size="48" transform="translate(104.029 377)">Random Integer</text><text font-family="Calibri,Calibri_MSFontService,sans-serif" font-weight="400" font-size="48" transform="translate(109.796 434)">(4</text><text font-family="Calibri,Calibri_MSFontService,sans-serif" font-weight="400" font-size="48" transform="translate(148.629 434)">-</text><text font-family="Calibri,Calibri_MSFontService,sans-serif" font-weight="400" font-size="48" transform="translate(163.296 434)">Digit Length)</text><path d="M808.216 172.133 808.216 547.867" stroke="#000000" stroke-width="1.33333" stroke-linejoin="round" stroke-miterlimit="10" fill="none" fill-rule="evenodd"/><path d="M634.8 297.6 1186.4 297.6" stroke="#000000" stroke-width="1.33333" stroke-linejoin="round" stroke-miterlimit="10" fill="none" fill-rule="evenodd"/><path d="M634.8 422.4 1186.4 422.4" stroke="#000000" stroke-width="1.33333" stroke-linejoin="round" stroke-miterlimit="10" fill="none" fill-rule="evenodd"/><path d="M635.466 172.133 635.466 547.867" stroke="#000000" stroke-width="1.33333" stroke-linejoin="round" stroke-miterlimit="10" fill="none" fill-rule="evenodd"/><path d="M1185.73 172.133 1185.73 547.867" stroke="#000000" stroke-width="1.33333" stroke-linejoin="round" stroke-miterlimit="10" fill="none" fill-rule="evenodd"/><path d="M634.8 172.8 1186.4 172.8" stroke="#000000" stroke-width="1.33333" stroke-linejoin="round" stroke-miterlimit="10" fill="none" fill-rule="evenodd"/><path d="M634.8 547.2 1186.4 547.2" stroke="#000000" stroke-width="1.33333" stroke-linejoin="round" stroke-miterlimit="10" fill="none" fill-rule="evenodd"/><g clip-path="url(#clip1)"><text font-family="Calibri,Calibri_MSFontService,sans-serif" font-weight="400" font-size="48" transform="translate(840.573 223)">Random Integer</text></g><g clip-path="url(#clip2)"><text font-family="Calibri,Calibri_MSFontService,sans-serif" font-weight="400" font-size="48" transform="translate(836.92 281)">(4</text></g><text font-family="Calibri,Calibri_MSFontService,sans-serif" font-weight="400" font-size="48" transform="translate(875.753 281)">-</text><g clip-path="url(#clip3)"><text font-family="Calibri,Calibri_MSFontService,sans-serif" font-weight="400" font-size="48" transform="translate(890.42 281)">Digits Length)</text></g><g clip-path="url(#clip4)"><text font-family="Calibri,Calibri_MSFontService,sans-serif" font-weight="400" font-size="48" transform="translate(649.508 223)">UserID</text></g><g clip-path="url(#clip5)"><text font-family="Calibri,Calibri_MSFontService,sans-serif" font-weight="400" font-size="48" transform="translate(781.341 223)">:</text></g><text font-family="Calibri,Calibri_MSFontService,sans-serif" font-weight="400" font-size="48" transform="translate(853.306 347)">Random String</text><g clip-path="url(#clip6)"><text font-family="Calibri,Calibri_MSFontService,sans-serif" font-weight="400" font-size="48" transform="translate(831.84 405)">(Variable Length)</text></g><g clip-path="url(#clip7)"><text font-family="Calibri,Calibri_MSFontService,sans-serif" font-weight="400" font-size="48" transform="translate(657.341 347)">Name:</text></g><text font-family="Calibri,Calibri_MSFontService,sans-serif" font-weight="400" font-size="48" transform="translate(853.306 472)">Random</text><text font-family="Calibri,Calibri_MSFontService,sans-serif" font-weight="400" font-size="48" transform="translate(1027.14 472)">String</text><g clip-path="url(#clip8)"><text font-family="Calibri,Calibri_MSFontService,sans-serif" font-weight="400" font-size="48" transform="translate(831.84 530)">(Variable Length)</text></g><g clip-path="url(#clip9)"><text font-family="Calibri,Calibri_MSFontService,sans-serif" font-weight="400" font-size="48" transform="translate(662.008 472)">Email:</text></g><path d="M552 0 552 720" stroke="#000000" stroke-width="2" stroke-linejoin="round" stroke-miterlimit="10" stroke-dasharray="8 6" fill="none" fill-rule="evenodd"/><text font-family="Calibri,Calibri_MSFontService,sans-serif" font-weight="700" font-size="48" transform="translate(843.657 91)">Value</text><path d="M477.5 359.833 629.543 359.833 629.543 361.167 477.5 361.167ZM628.21 356.5 636.21 360.5 628.21 364.5Z"/></g></svg>