<svg width="1280" height="720" xmlns="http://www.w3.org/2000/svg" xmlns:xlink="http://www.w3.org/1999/xlink" overflow="hidden"><defs><clipPath id="clip0"><rect x="0" y="0" width="1280" height="720"/></clipPath></defs><g clip-path="url(#clip0)"><rect x="0" y="0" width="1280" height="720" fill="#FFFFFF"/><path d="M1045.5 36.7501C1045.5 50.6953 1090.72 62.0001 1146.5 62.0001 1202.28 62.0001 1247.5 50.6953 1247.5 36.7501L1247.5 189.25C1247.5 203.195 1202.28 214.5 1146.5 214.5 1090.72 214.5 1045.5 203.195 1045.5 189.25Z" fill="#A5A5A5" fill-rule="evenodd"/><path d="M1045.5 36.7501C1045.5 22.8049 1090.72 11.5001 1146.5 11.5001 1202.28 11.5001 1247.5 22.8049 1247.5 36.7501 1247.5 50.6953 1202.28 62.0001 1146.5 62.0001 1090.72 62.0001 1045.5 50.6953 1045.5 36.7501Z" fill="#C9C9C9" fill-rule="evenodd"/><path d="M1247.5 36.7501C1247.5 50.6953 1202.28 62.0001 1146.5 62.0001 1090.72 62.0001 1045.5 50.6953 1045.5 36.7501 1045.5 22.8049 1090.72 11.5001 1146.5 11.5001 1202.28 11.5001 1247.5 22.8049 1247.5 36.7501L1247.5 189.25C1247.5 203.195 1202.28 214.5 1146.5 214.5 1090.72 214.5 1045.5 203.195 1045.5 189.25L1045.5 36.7501" stroke="#000000" stroke-width="3" stroke-miterlimit="8" fill="none" fill-rule="evenodd"/><text font-family="Calibri,Calibri_MSFontService,sans-serif" font-weight="400" font-size="43" transform="translate(1057.91 139)">Database</text><text font-family="Calibri,Calibri_MSFontService,sans-serif" font-weight="400" font-size="28" transform="translate(1219.5 149)">1</text><path d="M1045.5 360.75C1045.5 374.695 1090.72 386 1146.5 386 1202.28 386 1247.5 374.695 1247.5 360.75L1247.5 512.25C1247.5 526.195 1202.28 537.5 1146.5 537.5 1090.72 537.5 1045.5 526.195 1045.5 512.25Z" fill="#A5A5A5" fill-rule="evenodd"/><path d="M1045.5 360.75C1045.5 346.805 1090.72 335.5 1146.5 335.5 1202.28 335.5 1247.5 346.805 1247.5 360.75 1247.5 374.695 1202.28 386 1146.5 386 1090.72 386 1045.5 374.695 1045.5 360.75Z" fill="#C9C9C9" fill-rule="evenodd"/><path d="M1247.5 360.75C1247.5 374.695 1202.28 386 1146.5 386 1090.72 386 1045.5 374.695 1045.5 360.75 1045.5 346.805 1090.72 335.5 1146.5 335.5 1202.28 335.5 1247.5 346.805 1247.5 360.75L1247.5 512.25C1247.5 526.195 1202.28 537.5 1146.5 537.5 1090.72 537.5 1045.5 526.195 1045.5 512.25L1045.5 360.75" stroke="#000000" stroke-width="3" stroke-miterlimit="8" fill="none" fill-rule="evenodd"/><text font-family="Calibri,Calibri_MSFontService,sans-serif" font-weight="400" font-size="43" transform="translate(1057.66 463)">Database</text><text font-family="Calibri,Calibri_MSFontService,sans-serif" font-weight="400" font-size="28" transform="translate(1219.25 473)">n</text><rect x="26.5001" y="178.5" width="148" height="141" stroke="#385723" stroke-width="3" stroke-miterlimit="8" fill="#FFFFFF"/><text font-family="Calibri,Calibri_MSFontService,sans-serif" font-weight="400" font-size="43" transform="translate(50.2494 263)">Client</text><path d="M416.5 187.334C416.5 162.021 437.021 141.5 462.334 141.5L773.666 141.5C798.979 141.5 819.5 162.021 819.5 187.334L819.5 370.666C819.5 395.979 798.979 416.5 773.666 416.5L462.334 416.5C437.021 416.5 416.5 395.979 416.5 370.666Z" stroke="#000000" stroke-width="3" stroke-miterlimit="8" fill="#FFFFFF" fill-rule="evenodd"/><text font-family="Calibri,Calibri_MSFontService,sans-serif" font-weight="400" font-size="43" transform="translate(521.004 293)">Middleware</text><text font-family="Calibri,Calibri_MSFontService,sans-serif" font-weight="400" font-size="37" transform="translate(1136.32 233)">.</text><text font-family="Calibri,Calibri_MSFontService,sans-serif" font-weight="400" font-size="37" transform="translate(1136.32 278)">.</text><text font-family="Calibri,Calibri_MSFontService,sans-serif" font-weight="400" font-size="37" transform="translate(1136.32 323)">.</text><path d="M175 231 410.23 231 410.23 233 175 233ZM408.896 228 416.896 232 408.896 236Z"/><text font-family="Calibri,Calibri_MSFontService,sans-serif" font-weight="400" font-size="24" transform="translate(257.242 221)">Reques</text><text font-family="Calibri,Calibri_MSFontService,sans-serif" font-weight="400" font-size="24" transform="translate(328.222 221)">t</text><path d="M0.315397-0.94896 219.337 71.8451 218.706 73.743-0.315397 0.94896ZM219.018 68.5778 225.348 74.8968 216.495 76.1695Z" transform="matrix(-1 0 0 1 1044.35 99)"/><text font-family="Calibri,Calibri_MSFontService,sans-serif" font-weight="400" font-size="24" transform="matrix(0.936043 -0.351887 0.351887 0.936043 878.84 143)">Result</text><text font-family="Calibri,Calibri_MSFontService,sans-serif" font-weight="400" font-size="24" transform="matrix(0.936232 -0.351383 0.351383 0.936232 896.548 182)">Query</text><path d="M0.315397-0.94896 219.311 71.8366 218.68 73.7345-0.315397 0.94896ZM218.992 68.5691 225.322 74.8881 216.469 76.1608Z" transform="matrix(1 0 0 -1 819 219.888)"/><path d="M4.37363e-07-1 233.378-0.999898 233.378 1.0001-4.37363e-07 1ZM232.045-3.9999 240.045 0.000104987 232.045 4.0001Z" transform="matrix(-1 0 0 1 415.045 278)"/><text font-family="Calibri,Calibri_MSFontService,sans-serif" font-weight="400" font-size="24" transform="translate(256.744 267)">Response</text><path d="M1043.98 367.701 824.797 278.441 825.552 276.588 1044.74 365.849ZM824.901 281.722 819 275 827.918 274.313Z"/><text font-family="Calibri,Calibri_MSFontService,sans-serif" font-weight="400" font-size="24" transform="matrix(0.930094 0.367323 -0.367323 0.930094 899.233 294)">Result</text><text font-family="Calibri,Calibri_MSFontService,sans-serif" font-weight="400" font-size="24" transform="matrix(0.929896 0.367824 -0.367824 0.929896 886.106 336)">Query</text><path d="M0.36162-0.932325 219.238 83.963 218.515 85.8277-0.36162 0.932325ZM219.08 80.6839 225.092 87.3061 216.187 88.1425Z" transform="matrix(0.741351 0.671117 0.671117 -0.741351 818.212 323.386)"/><path d="M182 450 409.545 450 409.545 453 182 453ZM183.5 456 174.5 451.5 183.5 447ZM408.045 447 417.045 451.5 408.045 456Z"/><text font-family="Calibri,Calibri_MSFontService,sans-serif" font-weight="400" font-size="24" transform="translate(197.681 404)">Round Trip Latency</text><text font-family="Calibri,Calibri_MSFontService,sans-serif" font-weight="400" font-size="24" transform="translate(241.808 433)">Client Side</text><path d="M7.49457-1.48386 1064.19 0.792423 1064.18 3.79242 7.48811 1.51613ZM8.99029 4.51938 0 0 9.00967-4.4806ZM1062.68-2.21082 1071.67 2.30856 1062.66 6.78916Z" transform="matrix(1 0 0 -1 176.5 690.809)"/><text font-family="Calibri,Calibri_MSFontService,sans-serif" font-weight="400" font-size="24" transform="translate(612.091 677)">Total Response Time</text><path d="M0 0 0.145092 375.141" stroke="#000000" stroke-width="2" stroke-linejoin="round" stroke-miterlimit="10" stroke-dasharray="8 6" fill="none" fill-rule="evenodd" transform="matrix(-1 0 0 1 175.145 321)"/><path d="M416 351 416 690.033" stroke="#000000" stroke-width="2" stroke-linejoin="round" stroke-miterlimit="10" stroke-dasharray="8 6" fill="none" fill-rule="evenodd"/><path d="M0 0 1.01701 503.622" stroke="#000000" stroke-width="2" stroke-linejoin="round" stroke-miterlimit="10" stroke-dasharray="8 6" fill="none" fill-rule="evenodd" transform="matrix(-1 0 0 1 1248.02 193)"/><path d="M424.996 578 1240.75 578 1240.75 581 424.996 581ZM426.5 584 417.5 579.5 426.5 575ZM1239.25 575 1248.25 579.5 1239.25 584Z"/><text font-family="Calibri,Calibri_MSFontService,sans-serif" font-weight="400" font-size="24" transform="translate(704.574 566)">Internal Processing Time</text><path d="M827 492 1037.74 492 1037.74 495 827 495ZM828.5 498 819.5 493.5 828.5 489ZM1036.24 489 1045.24 493.5 1036.24 498Z"/><text font-family="Calibri,Calibri_MSFontService,sans-serif" font-weight="400" font-size="24" transform="translate(853.715 479)">Internal Latency</text><path d="M819 180 819.677 502.556" stroke="#000000" stroke-width="2" stroke-linejoin="round" stroke-miterlimit="10" stroke-dasharray="8 6" fill="none" fill-rule="evenodd"/></g></svg>